<svg xmlns="http://www.w3.org/2000/svg" width="24" height="25" viewBox="0 0 24 25" fill="none">
    <path d="M17.83 9.48472C17.6894 9.34427 17.4988 9.26538 17.3 9.26538C17.1013 9.26538 16.9106 9.34427 16.77 9.48472L12 14.2547L7.23001 9.48472C7.08613 9.34416 6.89231 9.26651 6.69117 9.26885C6.49004 9.27119 6.29808 9.35334 6.15751 9.49722C6.01695 9.6411 5.9393 9.83493 5.94164 10.0361C5.94399 10.2372 6.02613 10.4292 6.17001 10.5697L11.455 15.8347C11.5971 15.9743 11.7883 16.0525 11.9875 16.0525C12.1867 16.0525 12.3779 15.9743 12.52 15.8347L17.83 10.5697C17.9034 10.4997 17.9618 10.4155 18.0017 10.3223C18.0416 10.229 18.0621 10.1286 18.0621 10.0272C18.0621 9.9258 18.0416 9.82543 18.0017 9.73218C17.9618 9.63894 17.9034 9.55475 17.83 9.48472Z" fill="#006199"/>
</svg>