<svg xmlns="http://www.w3.org/2000/svg" width="24" height="24" viewBox="0 0 24 24" fill="none">
    <path d="M19.6936 8.29086C19.5079 8.10461 19.2563 8 18.9939 8C18.7316 8 18.4799 8.10461 18.2943 8.29086L11.9976 14.6161L5.70081 8.29086C5.51088 8.10446 5.25502 8.00149 4.98951 8.0046C4.724 8.00771 4.47059 8.11664 4.28503 8.30743C4.09948 8.49822 3.99697 8.75525 4.00007 9.02196C4.00316 9.28867 4.1116 9.54322 4.30154 9.72962L11.2781 16.7113C11.4657 16.8963 11.7181 17 11.9811 17C12.244 17 12.4964 16.8963 12.684 16.7113L19.6936 9.72962C19.7904 9.63675 19.8675 9.52512 19.9202 9.40147C19.9728 9.27782 20 9.14473 20 9.01024C20 8.87575 19.9728 8.74265 19.9202 8.619C19.8675 8.49535 19.7904 8.38372 19.6936 8.29086Z" fill="#999999"/>
</svg>