<svg xmlns="http://www.w3.org/2000/svg" width="28" height="26" viewBox="0 0 28 26" fill="none">
<path d="M12.752 1.34441C13.083 1.01352 13.5319 0.827637 13.9999 0.827637C14.4679 0.827637 14.9168 1.01352 15.2478 1.34441L19.295 5.39161V3.10944C19.295 2.87538 19.3879 2.65091 19.5534 2.48541C19.719 2.3199 19.9434 2.22692 20.1775 2.22692H21.9425C22.1766 2.22692 22.401 2.3199 22.5665 2.48541C22.732 2.65091 22.825 2.87538 22.825 3.10944V8.92166L26.9799 13.0748C27.1454 13.2405 27.2382 13.4651 27.2381 13.6993C27.2379 13.9335 27.1447 14.158 26.979 14.3235C26.8133 14.489 26.5886 14.5819 26.3544 14.5817C26.1203 14.5815 25.8957 14.4883 25.7302 14.3226L13.9999 2.59228L2.26954 14.3226C2.10406 14.4883 1.87953 14.5815 1.64535 14.5817C1.41116 14.5819 1.1865 14.489 1.02079 14.3235C0.855074 14.158 0.761884 13.9335 0.761719 13.6993C0.761553 13.4651 0.854425 13.2405 1.0199 13.0748L12.752 1.34441Z" fill="white"/>
<path d="M24.59 15.0992L13.9998 4.50903L3.40967 15.0992V22.5246C3.40967 23.2268 3.6886 23.9002 4.18511 24.3967C4.68162 24.8932 5.35503 25.1722 6.0572 25.1722H21.9424C22.6446 25.1722 23.318 24.8932 23.8145 24.3967C24.311 23.9002 24.59 23.2268 24.59 22.5246V15.0992ZM13.9998 13.6677C16.9368 10.7149 24.2811 15.8811 13.9998 22.5246C3.71855 15.8811 11.0628 10.7149 13.9998 13.6677Z" fill="white"/>
</svg>