<svg xmlns="http://www.w3.org/2000/svg" width="24" height="24" viewBox="0 0 24 24" fill="none">
    <path d="M18 15.65C17.5326 15.6504 17.0717 15.76 16.6542 15.9701C16.2366 16.1802 15.8739 16.4849 15.595 16.86L8.84001 12.96C9.03781 12.3818 9.05178 11.7565 8.88001 11.17L15.73 7.21501C16.207 7.76782 16.8693 8.12769 17.5926 8.22716C18.316 8.32663 19.0508 8.15888 19.6593 7.75535C20.2678 7.35182 20.7083 6.74021 20.8981 6.03516C21.088 5.33011 21.0142 4.58003 20.6906 3.9255C20.367 3.27097 19.8157 2.75693 19.1402 2.47973C18.4647 2.20253 17.7113 2.1812 17.0212 2.41973C16.3311 2.65827 15.7517 3.1403 15.3916 3.77547C15.0315 4.41064 14.9154 5.15535 15.065 5.87001L8.12001 9.87001C7.7045 9.45489 7.17628 9.17087 6.60086 9.05316C6.02543 8.93546 5.42811 8.98926 4.88297 9.20789C4.33784 9.42651 3.86887 9.80035 3.53423 10.283C3.19958 10.7657 3.01399 11.336 3.00046 11.9232C2.98693 12.5104 3.14606 13.0886 3.45812 13.5862C3.77017 14.0838 4.22143 14.4788 4.75591 14.7223C5.2904 14.9658 5.88461 15.0471 6.46485 14.956C7.04508 14.865 7.58583 14.6056 8.02001 14.21L15.02 18.255C14.9397 18.8597 15.0456 19.4744 15.3236 20.0174C15.6016 20.5603 16.0385 21.0056 16.5761 21.2938C17.1136 21.5821 17.7263 21.6997 18.3323 21.6309C18.9384 21.562 19.5091 21.3101 19.9683 20.9087C20.4276 20.5072 20.7535 19.9753 20.9027 19.3839C21.052 18.7925 21.0173 18.1696 20.8035 17.5984C20.5897 17.0271 20.2068 16.5346 19.7059 16.1865C19.2051 15.8384 18.61 15.6513 18 15.65ZM18 3.76001C18.2967 3.76001 18.5867 3.84799 18.8334 4.01281C19.08 4.17763 19.2723 4.4119 19.3858 4.68599C19.4994 4.96008 19.5291 5.26168 19.4712 5.55265C19.4133 5.84362 19.2704 6.11089 19.0607 6.32067C18.8509 6.53045 18.5836 6.67331 18.2926 6.73119C18.0017 6.78907 17.7001 6.75936 17.426 6.64583C17.1519 6.5323 16.9176 6.34004 16.7528 6.09337C16.588 5.84669 16.5 5.55668 16.5 5.26001C16.5 4.86219 16.658 4.48066 16.9393 4.19935C17.2207 3.91805 17.6022 3.76001 18 3.76001ZM6.00001 13.5C5.70334 13.5 5.41333 13.412 5.16665 13.2472C4.91998 13.0824 4.72772 12.8481 4.61419 12.574C4.50066 12.2999 4.47095 11.9983 4.52883 11.7074C4.58671 11.4164 4.72957 11.1491 4.93935 10.9394C5.14913 10.7296 5.4164 10.5867 5.70737 10.5288C5.99834 10.471 6.29994 10.5007 6.57403 10.6142C6.84812 10.7277 7.08239 10.92 7.24721 11.1667C7.41203 11.4133 7.50001 11.7033 7.50001 12C7.50001 12.3978 7.34197 12.7794 7.06067 13.0607C6.77936 13.342 6.39783 13.5 6.00001 13.5ZM18 20.15C17.7033 20.15 17.4133 20.062 17.1667 19.8972C16.92 19.7324 16.7277 19.4981 16.6142 19.224C16.5007 18.9499 16.471 18.6483 16.5288 18.3574C16.5867 18.0664 16.7296 17.7991 16.9393 17.5894C17.1491 17.3796 17.4164 17.2367 17.7074 17.1788C17.9983 17.121 18.2999 17.1507 18.574 17.2642C18.8481 17.3777 19.0824 17.57 19.2472 17.8167C19.412 18.0633 19.5 18.3533 19.5 18.65C19.5 19.0478 19.342 19.4294 19.0607 19.7107C18.7794 19.992 18.3978 20.15 18 20.15Z" fill="#0071B3"/>
</svg>